<svg width="32" height="32" viewBox="0 0 32 32" fill="none" xmlns="http://www.w3.org/2000/svg">
<path opacity="0.2" d="M16 28C22.6274 28 28 22.6274 28 16C28 9.37258 22.6274 4 16 4C9.37258 4 4 9.37258 4 16C4 22.6274 9.37258 28 16 28Z" fill="#8A2CDC"/>
<path d="M12.9996 10.499H18.9996L15.5004 15.5C16.076 15.5 16.6427 15.642 17.1503 15.9133C17.6579 16.1846 18.0908 16.5769 18.4106 17.0555C18.7303 17.5341 18.9272 18.0841 18.9836 18.6569C19.04 19.2298 18.9543 19.8076 18.734 20.3394C18.5137 20.8712 18.1657 21.3404 17.7208 21.7055C17.2759 22.0707 16.7478 22.3205 16.1832 22.4328C15.6187 22.545 15.0352 22.5164 14.4844 22.3493C13.9336 22.1822 13.4325 21.8819 13.0256 21.4749" stroke="#8A2CDC" stroke-width="2" stroke-linecap="round" stroke-linejoin="round"/>
</svg>
