<svg width="32" height="32" viewBox="0 0 32 32" fill="none" xmlns="http://www.w3.org/2000/svg">
<path opacity="0.2" d="M16 28C22.6274 28 28 22.6274 28 16C28 9.37258 22.6274 4 16 4C9.37258 4 4 9.37258 4 16C4 22.6274 9.37258 28 16 28Z" fill="#8A2CDC"/>
<path d="M13.2358 11.8323C13.3986 11.4469 13.6404 11.0998 13.9454 10.8133C14.2504 10.5269 14.6119 10.3074 15.0067 10.1689C15.4016 10.0305 15.8211 9.97616 16.2382 10.0094C16.6553 10.0427 17.0608 10.1629 17.4287 10.3622C17.7966 10.5615 18.1188 10.8355 18.3745 11.1667C18.6302 11.4979 18.8138 11.879 18.9135 12.2853C19.0133 12.6917 19.0269 13.1144 18.9535 13.5264C18.8802 13.9383 18.7215 14.3304 18.4876 14.6774V14.6774L13 22V21.9993H19" stroke="#8A2CDC" stroke-width="2" stroke-linecap="round" stroke-linejoin="round"/>
</svg>
