<?xml version="1.0" encoding="utf-8"?>
<!-- Generator: Adobe Illustrator 22.1.0, SVG Export Plug-In . SVG Version: 6.00 Build 0)  -->
<svg version="1.1" id="Layer_1" xmlns="http://www.w3.org/2000/svg" xmlns:xlink="http://www.w3.org/1999/xlink" x="0px" y="0px"
	 viewBox="0 0 1267.7 331.2" style="enable-background:new 0 0 1267.7 331.2;" xml:space="preserve">
<g>
	<path d="M45.6,105.5H27.4V88.1h18.3v-5.5c0-50.7,33.9-57.1,50.1-57.1c5.5,0,9,0.6,9,0.6v18.6c0,0-2.6-0.6-7-0.6
		c-11,0-32.4,4.3-32.4,38.5v5.5h37.1v17.4H65.3v136.2H45.6V105.5z"/>
	<path d="M134,112.8c0-4.3-2.3-6.7-6.4-6.7h-12.2v-18h20.3c12.2,0,17.7,5.2,17.7,17.4v10.4c0,6.4-0.6,11.6-0.6,11.6h0.6
		c7-23.2,23.2-40.9,46.1-40.9c4.1,0,7.8,0.9,7.8,0.9V108c0,0-3.5-0.6-7.2-0.6c-20.6,0-35.9,17.1-42.3,39.7
		c-2.9,9.8-4.1,20.2-4.1,29.9v64.7H134V112.8z"/>
	<path d="M239.7,112.8c0-4.3-2.3-6.7-6.4-6.7h-12.2v-18h20.6c12.5,0,17.7,5.5,17.7,18.6v110.2c0,4.6,2.3,6.7,6.4,6.7H278v18h-20.6
		c-12.5,0-17.7-5.5-17.7-18.6V112.8z M239.1,27h19.1v26.3h-19.1V27z"/>
	<path d="M361.3,84.4c40.3,0,61.1,32.7,61.1,70.8c0,3.7-0.6,10.4-0.6,10.4H310c0.6,38.8,26.4,61.1,56.5,61.1
		c26.7,0,43.7-18.9,43.7-18.9l9.6,15.6c0,0-21.1,22-54.2,22c-43.2,0-76.2-33-76.2-80.3C289.5,114.6,322.2,84.4,361.3,84.4z
		 M402.2,149.1c-1.2-31.8-19.7-47.3-41.1-47.3c-24,0-45.2,16.5-50.1,47.3H402.2z"/>
	<path d="M454.4,112.8c0-4.3-2.3-6.7-6.4-6.7h-12.2v-18h20.3c12.2,0,17.7,5.5,17.7,17.1v7c0,6.1-0.6,11-0.6,11h0.6
		c5.2-14,23.8-38.8,57.9-38.8c36.2,0,49,21.7,49,59.5v73c0,4.6,2.3,6.7,6.4,6.7h12.2v18h-20.6c-12.5,0-17.7-5.5-17.7-18.6v-73.6
		c0-24.1-3.5-45.5-31.6-45.5c-24.9,0-46.4,18-53,43.4c-1.7,6.4-2.3,13.4-2.3,20.8v73.6h-19.7L454.4,112.8L454.4,112.8z"/>
	<path d="M676.1,84.4c35.3,0,47.5,28.7,47.5,28.7h0.6c0,0-0.6-5.2-0.6-11.6V51.7c0-4.3-2.3-6.7-6.4-6.7H705V27h20.6
		c12.5,0,17.7,5.5,17.7,18.6v171.3c0,4.6,2.3,6.7,6.4,6.7h12.2v18h-20.3c-12.2,0-17.4-5.8-17.4-17.1c0-5.8,0.6-9.8,0.6-9.8h-0.6
		c0,0-11.9,30.5-50.1,30.5c-39.1,0-63.4-33-63.4-80.6C610.7,116.1,637.9,84.4,676.1,84.4z M724.2,164.7c0-31.1-15.1-61.7-46.4-61.7
		c-25.8,0-46.9,22.9-46.9,61.7c0,37.9,18.8,62,46.1,62C701.4,226.7,724.2,208.4,724.2,164.7z"/>
	<path d="M785.2,51.7c0-4.3-2.3-6.7-6.4-6.7h-12.2V27h20.6c12.5,0,17.7,5.5,17.7,18.6v55.6c0,7-0.6,12.5-0.6,12.5h0.6
		c0,0,12.2-29.3,49.5-29.3c39.1,0,63.4,33,63.4,80.6c0,48.5-27.5,80.3-65.8,80.3c-34.8,0-47.8-29.6-47.8-29.6h-0.6
		c0,0,0.6,5.2,0.6,12.5v13.4h-19.1L785.2,51.7L785.2,51.7z M850.6,227c25.8,0,46.9-22.9,46.9-62c0-37.6-19.1-61.7-46.1-61.7
		c-24.3,0-47.2,18.3-47.2,62C804.3,196.1,819.4,227,850.6,227z"/>
	<path d="M947.7,112.8c0-4.3-2.3-6.7-6.4-6.7h-12.2v-18h20.6c12.5,0,17.7,5.5,17.7,18v74.2c0,24.1,3.8,45.5,31.9,45.5
		c33,0,53.6-30.8,53.6-64.1V88.1h19.7V217c0,4.6,2.3,6.7,6.4,6.7h12.2v18h-20c-12.2,0-17.7-5.5-17.7-17.1v-7c0-6.1,0.6-11,0.6-11
		h-0.6c-5.8,15-24.9,38.8-56.8,38.8c-34.5,0-49-19.5-49-59.5V112.8z"/>
	<path d="M1122.2,287.1c12.7,0,21.4-11,26.9-25l8.7-21.1l-51.3-127.9c-2.3-5.5-4.9-7-10.1-7h-2.9v-18h9c13,0,17.1,3.1,22.3,16.8
		l37.4,95.9c2.9,7.6,5.2,16.5,5.2,16.5h0.6c0,0,2-8.9,4.9-16.5l35.9-95.9c4.9-13.7,9.3-16.8,22.6-16.8h9v18h-2.9
		c-5.2,0-8.1,1.5-10.1,7l-62.9,160.6c-7.5,19.5-22.3,32.1-41.7,32.1c-20.3,0-31.6-15-31.6-15l9.3-15.3
		C1100.4,275.8,1109.7,287.1,1122.2,287.1z"/>
</g>
</svg>
