<svg xmlns="http://www.w3.org/2000/svg" viewBox="0 0 326.13 79.48"><defs><style>.cls-1{fill:#78797c;}.cls-2{fill:#7a7b7d;}.cls-3{fill:#7b7c7f;}.cls-4{fill:#7b7c7e;}.cls-5{fill:#818285;}.cls-6{fill:#df1e59;}.cls-7{fill:#f7a921;}.cls-8{fill:#f37e29;}.cls-9{fill:#737273;}.cls-10{fill:#737477;}.cls-11{fill:#f9ac22;}</style></defs><g id="Layer_2" data-name="Layer 2"><g id="Layer_1-2" data-name="Layer 1"><path class="cls-1" d="M326.13,56.2a12.38,12.38,0,0,1-4.33,9.6c-.21.17-.42.34-.65.5-5.81,4.11-16,3.73-21.28-2.28a16.07,16.07,0,0,1,.4-21.09c4.3-4.6,12.8-5.78,18.83-2.71,1.14.58,1.89,1.88,4,1.9,0-4.51.05-9,0-13.49v-.52a1.52,1.52,0,0,1,3,.1Zm-14.22,8.94c6.75,0,11.29-4.71,11.2-11.59a11.18,11.18,0,0,0-11.19-11.39c-7.08,0-11.56,4.5-11.41,12C300.66,61,305.41,65.64,311.91,65.14Z"/><path class="cls-2" d="M255.34,59.22c-.17,2.58,1.15,6.27-.51,8.63s-5.58.94-8.48,1.28c-8.94,1.05-17.31-.45-23.12-8-5.1-6.64-5.62-14.13-2.26-21.74s9.57-11.45,17.86-12a31.75,31.75,0,0,1,11.79,1.09,8.91,8.91,0,0,1,3.91,2,2.55,2.55,0,0,1,.16,3.58c-1,1.3-1.83.67-2.92,0a19.27,19.27,0,0,0-16.67-1.87,15.23,15.23,0,0,0-10.85,14.33c-.15,3.94-.05,7.81,2.22,11.36a14.76,14.76,0,0,0,11.34,7c3.28.36,6.62.11,9.94.19,2,0,3.07-.58,2.95-2.82a68.75,68.75,0,0,1,0-8.37c.17-2.55-1.06-3.07-3.26-2.95s-4.31,0-6.47,0a2.15,2.15,0,0,1-2.31-2.09c-.1-1.66,1.17-1.73,2.37-1.74,3.65,0,7.3,0,10.95,0,2.25,0,3.39,1,3.37,3.24C255.32,53.12,255.34,55.91,255.34,59.22Z"/><path class="cls-3" d="M106,27.33c2.05-.21,3.24.93,4.06,2.78,2.65,6,5.45,11.91,8,17.94,2.43,5.72,4.64,11.54,6.92,17.32.39,1,1.53,2.23,0,3a3.42,3.42,0,0,1-4.08-.87c-1-1-1.07-2.38-1.52-3.59-2.93-7.84-2.91-7.85-11.44-7.85-3.65,0-7.3.05-10.94,0a3.11,3.11,0,0,0-3.4,2.21c-.92,2.46-2,4.85-3,7.25A10.6,10.6,0,0,1,89.06,68a2.1,2.1,0,0,1-2.31.48c-1-.33-1-1.18-.86-2a13.59,13.59,0,0,1,.67-2.34C91.12,52.88,95.85,41.72,101,30.74,102,28.63,103.29,27.15,106,27.33Zm-.33,3.52c-1.55,3.11-2.69,5.28-3.73,7.5-1.6,3.4-3.22,6.8-4.65,10.27-1.22,3-.82,3.53,2.24,3.58q6,.12,11.92,0c2.73-.05,3.08-.44,2.1-2.85C111.12,43.48,108.55,37.68,105.63,30.85Z"/><path class="cls-3" d="M197.89,68.94c-7.3.7-15.88-6.25-15.41-15.58.43-8.71,7-15,16.15-15,8.86.06,15.84,6.86,15.79,15.48A15.23,15.23,0,0,1,197.89,68.94ZM187.38,53.18C187.24,60.65,191.12,65,198,65.13c7,.1,11.56-4.23,11.61-11.11s-4.37-11.8-11-11.86S187.5,46.54,187.38,53.18Z"/><path class="cls-4" d="M156.67,50.05c0,2.46.1,4.92,0,7.38-.24,5-2.6,8.69-7.48,10.53a17.62,17.62,0,0,1-12.14.22,11.41,11.41,0,0,1-8.14-10.71c-.24-4.91-.07-9.84-.06-14.76a5.11,5.11,0,0,1,.27-1.92,2.22,2.22,0,0,1,2.35-1.43,2,2,0,0,1,2,1.85,19.15,19.15,0,0,1,.08,2.94c0,4.26-.11,8.53.05,12.79.21,5.27,3.18,8,8.46,8.18,6.88.19,10.34-3.06,10.5-10,.09-3.77,0-7.55,0-11.32a19.24,19.24,0,0,1,.14-2.94c.17-1.18,1-1.54,2.16-1.51a1.65,1.65,0,0,1,1.82,1.84c0,3,0,5.9,0,8.86Z"/><path class="cls-5" d="M163.72,47.7c0-4.11,0-8.22,0-12.33a4.15,4.15,0,0,1,.52-2.84,2.38,2.38,0,0,1,2.13-1,2,2,0,0,1,1.86,1.38,7.78,7.78,0,0,1,.23,1.93c.33,4.45.32,4.45,4.61,4.48,1.66,0,3.32,0,5,0s2.61.42,2.55,2.2-1.2,1.72-2.43,1.71c-2.16,0-4.33.11-6.48,0s-3.37.37-3.27,2.93c.18,4.59,0,9.2.08,13.8.1,3.91,1.57,5.2,5.58,5.23a9.45,9.45,0,0,0,4.33-.88c1.31-.64,2.3.09,2.81,1.24s-.52,1.79-1.38,2.2a14.35,14.35,0,0,1-11.11.55c-3.55-1.23-5-4.13-5-7.73,0-4.28,0-8.55,0-12.82Z"/><path class="cls-6" d="M44.94,53.19,45,38.25c4,.63,6.89-1.59,9.68-3.92,1.87-1.56,3.18-3.62,5.26-6.6,0,5.35.42,9.55-.12,13.63-.59,4.42-3.77,7.43-7.43,9.89-1.94,1.31-4.3,1.58-6.31,2.68a2.76,2.76,0,0,1-1-.07A1.94,1.94,0,0,0,44.94,53.19Z"/><path class="cls-7" d="M44.94,53.19a1.94,1.94,0,0,1,.21.67l-.24,14.42C37.76,68.61,34,73.63,30.2,78.65L30,64.38C33.22,58.33,37.66,53.91,44.94,53.19Z"/><path class="cls-8" d="M30.15,28.18c0,3.62-.12,7.23-.07,10.85,0,1.83-.23,2.9-2.5,3.32-4.45.81-7.66,3.74-10.29,7.25-.68.91-1,2.08-2.12,2.66L15,38.3c3.08-6.21,7.35-10.84,15-11A5.08,5.08,0,0,1,30.15,28.18Z"/><path class="cls-8" d="M60,65c6.66-.78,11-4.8,14.93-10.19,0,2.12,0,4.24,0,6.36a47.67,47.67,0,0,1-.1,6.87C74,73.57,66.16,79.48,59.92,79.48Z"/><path class="cls-9" d="M15,38.3l.18,14v1.15c-4.88-2.78-9-6.62-13.38-10A3.52,3.52,0,0,1,0,40.62c0-4.06,0-8.11,0-12.94C5.92,30.89,9.89,35.42,15,38.3Z"/><path class="cls-9" d="M60,65l-.1,14.49c-5.39-3.22-10-7.52-15-11.2l.24-14.42a2.76,2.76,0,0,0,1,.07Z"/><path class="cls-10" d="M30.15,28.18a5.08,5.08,0,0,0-.19-.86V13.11c5.64,3.06,9.61,7,14.15,10.22,1.11.78.92,2,.93,3.16,0,3.93,0,7.87,0,11.81-3-.7-4.86-3.19-7.28-4.81S33.13,29.34,30.15,28.18Z"/><path class="cls-9" d="M30,64.38l.17,14.27c-2,.65-3-.94-4.24-1.82-2.92-2.08-5.67-4.4-8.57-6.51a5.24,5.24,0,0,1-2.45-4.91c.19-3.9.1-7.8.12-11.7Q20.9,58,26.73,62.38A9.18,9.18,0,0,0,30,64.38Z"/><path class="cls-3" d="M262.32,56.58c0-2.62-.06-5.25,0-7.87.17-5.48,2.51-8.3,7.9-9.8a16.51,16.51,0,0,1,9.74.39c1.37.45,2.48,1.26,2,2.83s-1.82,1.06-2.93.83c-.48-.1-.91-.41-1.39-.51-6.94-1.36-10.79,1.48-11.23,8.54-.23,3.76-.05,7.54-.05,11.31v3.94c0,1.22-.11,2.4-1.8,2.29-1.3-.08-2.22-.68-2.23-2.11,0-3.28,0-6.56,0-9.84Z"/><path class="cls-5" d="M290.12,53.66c0,3.76,0,7.52,0,11.27,0,1.66.17,3.54-2.19,3.62-2.77.1-2.47-2-2.47-3.81,0-7,0-14,0-21.07a9.44,9.44,0,0,1,.3-2.87c.42-1.26,1.54-1.59,2.81-1.46s1.53,1,1.53,2.08Z"/><path class="cls-6" d="M286,34.86c-1-3.39-.31-6,2.57-7.8,1.55-1,2.7-2.47,2.64,1.14,0,1.77,0,2.18-2.37,3.36C287.85,32.06,287.09,34,286,34.86Z"/><path class="cls-11" d="M75.07.76,75,15.69c-4-.63-6.89,1.6-9.69,3.92-1.87,1.56-3.18,3.63-5.25,6.61,0-5.35-.43-9.55.11-13.63.59-4.42,3.77-7.44,7.43-9.9,2-1.3,4.3-1.57,6.31-2.67a2.53,2.53,0,0,1,.95.06A1.81,1.81,0,0,0,75.07.76Z"/></g></g></svg>