<svg xmlns="http://www.w3.org/2000/svg" fill="none" viewBox="0 0 237 49">
  <path fill="#3B97C7" fill-rule="evenodd" d="M24.319 32.293c4.293 0 7.79-3.5 7.79-7.791 0-4.293-3.497-7.793-7.79-7.793s-7.791 3.5-7.791 7.793c0 4.29 3.498 7.79 7.79 7.79z" clip-rule="evenodd"/>
  <path fill="#1C4C6F" fill-rule="evenodd" d="M42.79 40.367l.227 7.813a.5.5 0 01-.618.5l-7.934-1.93a.505.505 0 00-.323.029 24.251 24.251 0 01-9.804 2.057c-3.65 0-7.111-.803-10.217-2.242a.49.49 0 01-.175-.749l5.14-6.571a.51.51 0 01.56-.168c1.484.477 3.068.737 4.711.737 8.549 0 15.365-6.944 15.365-15.365 0-8.487-6.879-15.364-15.365-15.364-8.484 0-15.364 6.877-15.364 15.364l-.03 17.835c0 .42-.486.649-.8.369C3.155 38.224 0 31.732 0 24.5 0 11.06 10.897.165 24.338.165c13.44 0 24.335 10.896 24.335 24.336a24.238 24.238 0 01-5.884 15.866z" clip-rule="evenodd"/>
  <path fill="#1C4C6F" d="M82.5 18.5v-.372c0-7.317-5.54-9.55-11.906-9.55-3.018 0-5.953.208-8.102.538-.827.124-1.323.414-1.323 1.24v28.441a.83.83 0 00.827.827h4.134c.454 0 .785-.372.785-.827V28.008c.95.041 2.604.165 3.68.165 6.365 0 11.905-2.356 11.905-9.673zm-5.705 0c0 3.307-1.736 4.96-6.2 4.96-.704 0-3.019-.082-3.68-.123v-9.839c.744-.082 2.811-.165 3.68-.165 4.133 0 6.2 1.323 6.2 4.795v.372zM97.117 19.823v-2.976a.83.83 0 00-.826-.827c-1.654 0-3.886.413-5.912 1.984v-.868a.83.83 0 00-.827-.827h-3.596a.83.83 0 00-.827.827v21.62c0 .455.372.868.827.868h3.803c.455 0 .827-.413.827-.868V22.138c1.736-.91 3.472-1.488 5.705-1.488a.83.83 0 00.826-.827zM117.095 29.662v-3.349c0-5.911-3.39-10.293-9.88-10.293s-9.88 4.382-9.88 10.293v3.349c0 5.91 3.39 10.293 9.88 10.293s9.88-4.382 9.88-10.293zm-5.457 0c0 3.39-1.529 5.58-4.423 5.58s-4.423-2.19-4.423-5.58v-3.349c0-3.39 1.529-5.58 4.423-5.58s4.423 2.19 4.423 5.58v3.349zM132.244 38.921v-2.604c0-.413-.331-.62-.868-.62h-2.191c-1.488 0-1.612-.248-1.612-2.315v-12.98h3.72a.83.83 0 00.827-.827v-2.44a.83.83 0 00-.827-.826h-3.72v-4.258c0-.413-.29-.62-.662-.62h-.165l-3.844.662c-.455.082-.827.372-.827.826v3.39h-3.886a.83.83 0 00-.827.827v1.86c0 .455.372.744.827.827l3.886.579v12.98c0 5.54 1.901 6.573 6.573 6.573.909 0 1.819-.124 2.811-.29.537-.082.785-.33.785-.744zM153.126 29.662v-3.349c0-5.911-3.39-10.293-9.88-10.293s-9.88 4.382-9.88 10.293v3.349c0 5.91 3.39 10.293 9.88 10.293s9.88-4.382 9.88-10.293zm-5.457 0c0 3.39-1.529 5.58-4.423 5.58s-4.423-2.19-4.423-5.58v-3.349c0-3.39 1.529-5.58 4.423-5.58s4.423 2.19 4.423 5.58v3.349zM174.781 46.982V18.211c0-.62-.165-.868-1.116-1.116-2.563-.662-5.663-1.075-8.309-1.075-6.655 0-9.88 3.927-9.88 10.376v3.183c0 6.449 3.225 10.376 9.88 10.376.992 0 2.439-.083 3.969-.29v7.317c0 .455.372.827.826.827h3.804a.829.829 0 00.826-.827zm-5.456-11.781c-1.158.165-2.977.29-3.969.29-3.555 0-4.423-2.522-4.423-5.912v-3.183c0-3.39.868-5.912 4.423-5.912 1.488 0 3.183.124 3.969.29V35.2zM197.757 38.797v-21.62c0-.454-.372-.868-.827-.868h-3.803c-.455 0-.827.414-.827.868v16.536c-1.158.62-3.142 1.653-4.671 1.653-1.282 0-1.985-.248-2.563-.744-.786-.703-.951-1.901-.951-3.968V17.177c0-.454-.372-.868-.827-.868h-3.803c-.455 0-.827.414-.827.868v13.477c0 3.43.538 5.994 2.067 7.523 1.199 1.199 3.018 1.736 5.085 1.736 2.645 0 4.34-.661 6.49-2.066v.95a.83.83 0 00.827.827h3.803a.83.83 0 00.827-.827zM218.898 38.797V23.916c0-5.292-3.224-7.896-9.094-7.896-2.852 0-5.25.33-6.904.661-.537.124-.785.414-.785.868v2.646c0 .579.331.703.744.703h.207c1.364-.166 4.092-.331 6.738-.331 2.439 0 3.638.662 3.638 3.349v1.818h-2.605c-7.192 0-10.086 2.44-10.086 7.152v.165c0 5.58 3.72 6.904 7.151 6.904 1.985 0 3.928-.662 5.829-1.82v.662a.83.83 0 00.827.827h3.514a.829.829 0 00.826-.827zm-5.456-4.34c-1.199.661-2.729 1.157-4.217 1.157-2.067 0-2.976-.537-2.976-2.563v-.165c0-2.315.827-3.514 4.588-3.514h2.605v5.085zM228.426 38.756V8.992c0-.454-.33-.827-.785-.827h-3.844a.83.83 0 00-.827.827v29.764c0 .455.372.868.827.868h3.844c.455 0 .785-.413.785-.868zM236.259 10.64a2.481 2.481 0 00-2.484-2.475 2.474 2.474 0 00-2.475 2.476 2.474 2.474 0 002.475 2.475 2.481 2.481 0 002.484-2.476zm-.423 0a2.059 2.059 0 01-2.061 2.053 2.051 2.051 0 01-2.052-2.053c0-1.133.918-2.06 2.052-2.06s2.061.927 2.061 2.06zm-.864 1.386a.17.17 0 00-.018-.072l-.648-1.107c.333-.117.558-.35.558-.791v-.054c0-.712-.459-.946-1.224-.946-.225 0-.621.019-.756.037-.144.018-.198.08-.198.243v2.672c0 .055.045.118.108.118h.414c.063 0 .108-.063.108-.117v-1.063h.279c.027 0 .081.027.09.046l.63 1.061c.018.036.054.072.099.072h.459c.072 0 .099-.053.099-.098zm-.711-1.97c0 .279-.162.414-.576.414-.045 0-.324-.01-.387-.01v-.864h.387c.405 0 .576.108.576.405v.055z"/>
</svg>

