<svg xmlns="http://www.w3.org/2000/svg" viewBox="0 0 239.66 41.58"><defs><style>.cls-1{fill:#123e59;}.cls-2{fill:#123f59;}.cls-3{fill:#0e3b57;}.cls-4{fill:#13405a;}.cls-5{fill:#15415c;}.cls-6{fill:#0f3c57;}.cls-7{fill:#18445e;}.cls-8{fill:#0ab2c6;}</style></defs><g id="Layer_2" data-name="Layer 2"><g id="Layer_1-2" data-name="Layer 1"><path class="cls-1" d="M0,19c1-.25.88-1.24,1.21-1.89,3.45-6.78,13.15-8,17.91-2.08L16,17.83c-4.46-2.49-7.38-2.4-9.41.26A6,6,0,0,0,7.1,25.9c2.34,2.3,5.26,2.08,9-.7l3.17,3.13a10.33,10.33,0,0,1-9,3.82,10.61,10.61,0,0,1-9.12-6C.79,25.49.91,24.54,0,24.2Z"/><path class="cls-2" d="M120.83.16,126,0V31.32c-1.38.57-2.8.1-4.27.33l-.53-1.88c-4.88,3.37-9.29,3.13-12.86-.65a11,11,0,0,1-.6-14.15c3.26-4.12,7.86-4.81,13.11-1.79Zm0,18.35c-2.62-3-6-3.4-8.38-1.17a6.21,6.21,0,0,0,0,8.71c2.4,2.26,5.71,1.84,8.36-1.14Z"/><path class="cls-3" d="M84.38.06l4.71,0c.5,1.13.22,2.33.23,3.5q0,12.65,0,25.3a4.85,4.85,0,0,1-.26,2.59,14.63,14.63,0,0,1-3.9.12c-.65-.43-.41-1-.49-1.55l-.16-.44-.27.25C80,33.43,74.39,32.87,71,28.28a10.6,10.6,0,0,1-.86-11.82A9.15,9.15,0,0,1,79,11.26c1.91.05,3.45,1,5.36,2.23Zm-.16,24.71c.27-6.72-.29-8-3.74-8.72a5.25,5.25,0,0,0-6,3.13,6.12,6.12,0,0,0,2.17,7.54C79.19,28.21,81.87,27.55,84.22,24.77Z"/><path class="cls-1" d="M217.11,39.63l2.12-3.51c4.4,1.77,5.33,1.24,7-4.15l-4.73-9.87-4.87-10.19h5.62L229,26.21c1.85-5,3.54-9.6,5.26-14.28h5.45c-2.56,6.41-5,12.64-7.53,18.85a73.25,73.25,0,0,1-2.84,6.77C227,41.92,221.2,42.93,217.11,39.63Z"/><path class="cls-1" d="M146.07,13.83l.28-1.83a16.67,16.67,0,0,1,4.43-.13V31.35c-1.28.53-2.7.11-3.92.23-1.06-.37-.24-1.42-.93-1.83-4.45,3.51-9.21,3.19-12.9-.84a11,11,0,0,1,.23-14.67C136.91,10.48,141.75,10.24,146.07,13.83Zm-.11,8c0-3.88-1.59-5.83-4.8-5.89s-5.58,2.3-5.58,5.74,2.33,5.87,5.56,5.8S146,25.43,146,21.83Z"/><path class="cls-1" d="M41.73,31.52h-4.2c-.75-.26-.25-1.14-.63-1.52-6.81,4.13-11.9,2.4-15-4.62a10.3,10.3,0,0,1,3.7-12.45c3.39-2.42,7.22-2.21,11.26.68l.32-1.68h4.51V31.52Zm-5.06-12.9c-2.33-2.77-5.13-3.44-7.63-1.93A6.12,6.12,0,0,0,26.85,24,5.41,5.41,0,0,0,33,27.37C36.36,26.6,37,25.18,36.67,18.62Z"/><path class="cls-4" d="M177.73,23.52c1.69,4.43,5.86,5.18,11,2.11l2.35,3.47A11.74,11.74,0,0,1,177,30.41,10.62,10.62,0,0,1,173.31,17a10.07,10.07,0,0,1,11.74-5.48c5,1.24,7.84,5.76,7.38,12Zm9.55-3.7c-.63-2.82-2.4-4.14-5.14-4-2.59.11-4.09,1.49-4.32,4Z"/><path class="cls-5" d="M47.12,11.89h4.46l.23,2c.21-.08.45-.1.58-.24a7,7,0,0,1,8.06-1.9c3.24,1.16,4.62,3.75,4.66,7,.06,4.18,0,8.36,0,12.68H60c0-3.55,0-7.08,0-10.6,0-2-.25-3.89-2.47-4.64s-4,.15-5.46,2.2V31.35a17.89,17.89,0,0,1-5,.19Z"/><path class="cls-6" d="M158.37,11.73V6.1c1.71-.51,3.25-.22,5-.28v6h6v4.36h-5.91c0,3.18-.17,6.16.07,9.1.16,2.05,1.69,2.53,4.73,1.71l1.77,3.87c-2.66,1.55-5.29,1.92-8,.61a6.3,6.3,0,0,1-3.65-6.17c0-2.91,0-5.82,0-8.67-1.35-.78-2.7,0-4-.63v-4Z"/><path class="cls-5" d="M208,.1l5.15,0V31.34c-1.66.51-3.23.12-5.15.32Z"/><path class="cls-7" d="M96.06,11.88h4.8v19.5a16.21,16.21,0,0,1-4.8.15Z"/><path class="cls-5" d="M98.34,1.94a3.29,3.29,0,0,1,3.37,3.25,3.15,3.15,0,0,1-3.14,3.39A3.33,3.33,0,0,1,95,5.31,3.55,3.55,0,0,1,98.34,1.94Z"/><path class="cls-8" d="M202.64,28.89a3.42,3.42,0,0,1-3.35,3.31,3.38,3.38,0,0,1-3.35-3.52,3.22,3.22,0,0,1,3.44-3.12A3.28,3.28,0,0,1,202.64,28.89Z"/></g></g></svg>