<?xml version="1.0" encoding="utf-8"?>
<!-- Generator: Adobe Illustrator 19.2.1, SVG Export Plug-In . SVG Version: 6.00 Build 0)  -->
<svg version="1.1" id="layer" xmlns="http://www.w3.org/2000/svg" xmlns:xlink="http://www.w3.org/1999/xlink" x="0px" y="0px"
	 viewBox="0 0 652 652" style="enable-background:new 0 0 652 652;" xml:space="preserve">
<path d="M87.9,309.6c8.3,0,14.9,6.7,14.9,14.9s-6.7,14.9-14.9,14.9s-14.9-6.7-14.9-14.9S79.6,309.6,87.9,309.6z M87.9,261.7
	c-29.2,0-53.8,20-60.8,47.1c-0.1,0.2-0.1,0.5-0.1,0.7c0,1.6,1.3,3,3,3h25.3c1.2,0,2.2-0.7,2.7-1.7c0,0,0-0.1,0-0.1
	c5.2-11.3,16.6-19.1,29.8-19.1c18.2,0,32.9,14.7,32.9,32.9s-14.7,32.9-32.9,32.9c-13.2,0-24.6-7.8-29.8-19.1c0,0-0.1-0.1-0.1-0.1
	c-0.5-1.1-1.5-1.7-2.7-1.7H30c-1.7,0-3,1.3-3,3c0,0.3,0,0.5,0.1,0.7c7,27.1,31.5,47.1,60.8,47.1c34.7,0,62.8-28.1,62.8-62.8
	S122.5,261.7,87.9,261.7z M252,339.2h-8.5c-0.6,0-1.1,0.3-1.5,0.7c-5,7.3-13.3,12.1-22.9,12.1c-15.2,0-27.6-12.4-27.6-27.6
	c0-15.2,12.3-27.6,27.6-27.6c9.5,0,17.9,4.8,22.9,12.2c0.3,0.5,0.9,0.7,1.5,0.7h8.5c1,0,1.8-0.8,1.8-1.8c0-0.3-0.1-0.6-0.2-0.8
	c-6.4-12.6-19.4-21.2-34.5-21.2c-21.3,0-38.6,17.3-38.6,38.6c0,21.3,17.3,38.6,38.6,38.6c15.1,0,28.1-8.6,34.5-21.2
	c0.1-0.3,0.2-0.5,0.2-0.8C253.8,340,253,339.2,252,339.2z M277.7,273c0,4.1-3.3,7.4-7.4,7.4s-7.4-3.3-7.4-7.4l0,0
	c0-4.1,3.3-7.4,7.4-7.4S277.7,268.9,277.7,273z M275.9,359.4v-71.7h-11v71.7c0,1,0.8,1.8,1.8,1.8h7.4
	C275,361.3,275.9,360.5,275.9,359.4C275.9,359.4,275.9,359.4,275.9,359.4z M323.7,285.9c-11.1,0.5-20,5.8-25.8,14v-10.3
	c0-1-0.8-1.8-1.8-1.8h-7.4c-1,0-1.8,0.8-1.8,1.8v69.9c0,1,0.8,1.8,1.8,1.8h7.4c1,0,1.8-0.8,1.8-1.8c0,0,0,0,0,0v-34.9
	c0-14.6,11.4-26.6,25.7-27.5c1,0,1.8-0.8,1.8-1.8c0,0,0,0,0,0v-7.4C325.5,286.8,324.7,285.9,323.7,285.9L323.7,285.9z M397,339.2
	h-8.5c-0.6,0-1.1,0.3-1.5,0.7c-5,7.3-13.3,12.1-22.9,12.1c-15.2,0-27.6-12.4-27.6-27.6c0-15.2,12.3-27.6,27.6-27.6
	c9.5,0,17.9,4.8,22.9,12.2c0.3,0.5,0.9,0.7,1.5,0.7h8.5c1,0,1.8-0.8,1.8-1.8l0,0c0-0.3-0.1-0.6-0.2-0.8
	c-6.4-12.6-19.4-21.2-34.5-21.2c-21.3,0-38.6,17.3-38.6,38.6c0,21.3,17.3,38.6,38.6,38.6c15.1,0,28.1-8.6,34.5-21.2
	c0.1-0.3,0.2-0.5,0.2-0.8C398.8,340,398,339.2,397,339.2L397,339.2z M419.1,263.8h-7.4c-1,0-1.8,0.8-1.8,1.8v93.8
	c0,1,0.8,1.8,1.8,1.8h7.4c1,0,1.8-0.8,1.8-1.8v-93.8C420.9,264.6,420.1,263.8,419.1,263.8z M470.5,285.9
	c-21.3,0-38.6,17.3-38.6,38.6c0,21.3,17.3,38.6,38.6,38.6c15.1,0,28.1-8.6,34.5-21.2c0.5-0.9,0.1-2-0.8-2.5
	c-0.3-0.1-0.6-0.2-0.9-0.2h-8.5c-0.6,0-1.1,0.3-1.5,0.8c-5,7.3-13.3,12.1-22.8,12.1c-14,0-25.5-10.4-27.3-23.9h64.1
	c1,0,1.8-0.8,1.8-1.7c0-0.6,0.1-1.3,0.1-1.9C509.2,303.2,491.9,285.9,470.5,285.9L470.5,285.9z M444,317.1
	c3.2-11.7,13.9-20.2,26.6-20.2c12.7,0,23.4,8.6,26.6,20.2H444L444,317.1z M616,262c-6.1,0-11,4.9-11,11s4.9,11,11,11
	c6.1,0,11-4.9,11-11C627,266.9,622.1,262,616,262z M625.2,287.7v71.7c0,1-0.8,1.8-1.8,1.8h-14.7c-1,0-1.8-0.8-1.8-1.8c0,0,0,0,0,0
	v-71.7H625.2z M558.8,363.1c18,0,33.2-12.4,37.4-29c0-0.1,0-0.2,0-0.4c0-1-0.8-1.8-1.8-1.8h-15.6c-0.7,0-1.4,0.4-1.7,1.1l0,0
	c-3.2,7-10.2,11.8-18.4,11.8c-11.2,0-20.2-9.1-20.2-20.2s9.1-20.2,20.2-20.2c7.9,0,15.1,4.6,18.4,11.8l0,0c0.3,0.7,0.9,1.1,1.7,1.1
	h15.6c1,0,1.8-0.8,1.8-1.8c0-0.1,0-0.2,0-0.4c-4.3-16.7-19.4-29.1-37.4-29.1c-21.3,0-38.6,17.3-38.6,38.6
	C520.2,345.8,537.5,363.1,558.8,363.1z"/>
</svg>
